# xmcd
#
# Track frame offsets: 
#        150
#        13305
#        26968
#        42577
#        54416
#        65652
#        77871
#        90400
#        101727
#        114190
#        127904
#        146554
#        158922
#        177101
#        190880
#        215247
#        224305
#        239439
#        256664
#        268963
#
# Disc length: 3842 seconds
#
# Revision: 1
# Processed by: cddbd v1.5.2PL0 Copyright (c) Steve Scherf et al.
# Submitted via: ExactAudioCopyFreeDBPlugin 1.0
#
DISCID=290f0014
DTITLE=Bobby Bare - Detroit City
DYEAR=1999
DGENRE=Country
TTITLE0=Detroit City
TTITLE1=Miller's Cave
TTITLE2=Lincoln Park Inn
TTITLE3=Come Sundown
TTITLE4=(Please Don't Tell Me) How The Story Ends
TTITLE5=Streets Of Baltimore
TTITLE6=Four Strong Winds
TTITLE7=Daddy What If
TTITLE8=Five Hundred Miles Away From Home
TTITLE9=Ride Me Down Easy
TTITLE10=Tequila Sheila
TTITLE11=Green Green Grass Of home
TTITLE12=The Jogger
TTITLE13=Marie Lavaux
TTITLE14=The Winner
TTITLE15=Drop Kick Me Jesus
TTITLE16=For The Good Times
TTITLE17=Sylvia's Mother
TTITLE18=Loving Her Was Easier (Than Anything I'll Ever Do Again)
TTITLE19=Me And Bobbie Mc Ghee
EXTD=
EXTT0=
EXTT1=
EXTT2=
EXTT3=
EXTT4=
EXTT5=
EXTT6=
EXTT7=
EXTT8=
EXTT9=
EXTT10=
EXTT11=
EXTT12=
EXTT13=
EXTT14=
EXTT15=
EXTT16=
EXTT17=
EXTT18=
EXTT19=
PLAYORDER=
